<?xml version="1.0" standalone="no"?>
<!DOCTYPE svg PUBLIC "-//W3C//DTD SVG 20010904//EN"
 "http://www.w3.org/TR/2001/REC-SVG-20010904/DTD/svg10.dtd">
<svg version="1.0" xmlns="http://www.w3.org/2000/svg"
 width="1280.000000pt" height="1127.000000pt" viewBox="0 0 1280.000000 1127.000000"
 preserveAspectRatio="xMidYMid meet">
<metadata>
Created by potrace 1.15, written by Peter Selinger 2001-2017
</metadata>
<g transform="translate(0.000000,1127.000000) scale(0.100000,-0.100000)"
fill="#000000" stroke="none">
<path d="M3768 11238 c-17 -18 -49 -59 -71 -92 -51 -75 -222 -250 -236 -241
-6 3 -11 39 -11 84 0 66 -3 81 -21 97 -46 42 -69 -21 -43 -121 11 -43 10 -55
-3 -82 -8 -18 -21 -33 -28 -33 -23 0 -102 38 -200 95 -53 31 -135 75 -183 97
-48 23 -103 54 -122 70 -57 46 -100 37 -100 -23 0 -37 2 -39 24 -33 26 6 122
-48 290 -164 45 -31 117 -74 161 -97 44 -23 81 -48 83 -58 2 -10 -28 -48 -75
-96 -94 -96 -156 -168 -172 -199 -7 -12 -43 -53 -82 -91 -48 -48 -67 -74 -63
-85 16 -42 71 -7 220 139 34 33 87 78 119 100 31 22 73 57 93 78 56 59 66 52
58 -40 -3 -42 -13 -103 -23 -136 -17 -61 -10 -86 21 -74 18 7 66 98 66 124 0
10 9 36 19 58 11 22 25 55 32 73 6 17 17 32 24 32 11 0 148 -73 265 -140 8 -5
94 -47 190 -94 186 -91 240 -121 240 -134 0 -4 -13 -13 -30 -19 -35 -13 -47
-37 -30 -58 11 -13 16 -12 39 5 69 52 83 68 75 83 -12 19 -102 90 -141 111
-17 8 -39 26 -49 39 -11 14 -44 41 -74 61 -52 34 -85 57 -238 164 -34 23 -73
47 -88 52 -23 9 -24 12 -13 27 20 23 91 51 149 59 58 8 86 25 77 46 -5 13 -21
15 -94 11 -48 -3 -113 -11 -145 -19 -58 -15 -88 -11 -88 11 0 7 7 18 15 25 8
7 40 51 72 99 31 47 88 119 125 159 37 39 68 81 68 91 0 11 2 26 5 33 6 15
-32 38 -61 38 -9 0 -30 -15 -46 -32z"/>
<path d="M5734 10271 c-76 -30 -158 -81 -177 -112 -7 -11 -52 -52 -102 -92
-49 -40 -117 -97 -150 -127 -123 -111 -139 -125 -164 -142 -35 -23 -259 -227
-346 -314 -44 -44 -82 -74 -101 -78 -16 -4 -74 -29 -129 -56 -54 -28 -104 -50
-111 -50 -6 0 -19 -11 -28 -25 -9 -14 -33 -32 -52 -40 -78 -32 -294 -221 -294
-257 0 -7 -25 -8 -77 -3 -43 4 -128 8 -189 7 -106 0 -113 -1 -168 -32 -48 -27
-68 -33 -112 -31 -54 2 -164 -24 -164 -38 0 -12 -48 -31 -62 -26 -7 3 -24 21
-36 40 -13 19 -48 53 -78 76 -71 54 -144 73 -230 58 -55 -10 -66 -8 -103 11
-27 13 -64 22 -104 23 -54 2 -72 -3 -127 -31 -63 -33 -65 -34 -122 -22 -89 19
-160 8 -225 -35 -39 -26 -60 -48 -70 -75 -13 -32 -30 -46 -116 -96 -110 -64
-406 -281 -474 -347 -42 -41 -54 -67 -31 -67 8 0 9 -3 2 -10 -6 -6 -57 -12
-115 -14 -57 -3 -121 -10 -142 -16 -45 -13 -80 -58 -131 -165 -19 -40 -39 -76
-44 -79 -6 -3 -20 -26 -32 -51 -12 -25 -31 -50 -41 -56 -10 -5 -19 -18 -19
-29 0 -24 -36 -96 -67 -134 -13 -16 -33 -46 -44 -67 -12 -25 -26 -39 -39 -39
-28 0 -34 -17 -10 -30 14 -8 20 -21 20 -48 0 -20 9 -52 20 -70 11 -18 20 -36
20 -41 0 -14 -71 -39 -214 -76 -76 -19 -154 -44 -173 -55 -19 -11 -40 -20 -46
-20 -7 0 -29 -12 -50 -26 -62 -42 -117 -193 -117 -323 0 -48 4 -58 40 -101 26
-31 38 -54 34 -64 -4 -10 5 -33 21 -57 l28 -40 -41 -79 c-49 -93 -51 -118 -16
-154 59 -58 145 -27 298 104 121 105 334 236 400 247 20 3 54 -1 82 -11 26 -9
58 -16 70 -16 30 0 45 -29 50 -99 9 -130 57 -246 116 -277 34 -18 97 -18 121
0 24 18 57 107 47 126 -4 8 -10 39 -13 69 -5 41 -2 61 13 90 15 31 18 54 15
132 -2 66 1 104 12 129 10 25 12 53 7 97 -6 56 -4 63 12 69 103 32 177 70 323
168 303 204 377 257 396 283 12 16 97 52 185 78 65 19 119 43 172 77 50 32 65
30 102 -11 17 -18 17 -21 3 -27 -12 -4 -15 -14 -10 -35 10 -53 -4 -96 -38
-109 -17 -7 -48 -37 -70 -66 -42 -58 -74 -84 -101 -84 -11 0 -15 -5 -12 -14 4
-10 -27 -46 -85 -102 -77 -73 -98 -100 -133 -173 -30 -62 -62 -107 -113 -161
-39 -41 -90 -98 -114 -127 -23 -29 -50 -54 -59 -57 -10 -3 -42 -36 -72 -73
-30 -37 -86 -99 -123 -138 -38 -38 -138 -142 -223 -229 -85 -88 -160 -169
-167 -182 -6 -12 -39 -57 -71 -100 -55 -72 -136 -226 -136 -258 0 -7 -6 -19
-14 -25 -8 -6 -16 -26 -19 -44 -3 -18 -11 -57 -17 -87 -7 -30 -15 -74 -19 -98
-5 -24 -13 -48 -19 -54 -7 -7 -12 -19 -12 -27 0 -8 -17 -32 -37 -53 -38 -39
-38 -39 -21 -68 17 -30 17 -30 -7 -30 -14 0 -25 -6 -25 -13 0 -20 21 -37 46
-37 12 0 24 -6 27 -13 6 -15 -12 -115 -25 -140 -11 -23 -38 -179 -38 -228 0
-20 -7 -42 -15 -49 -11 -9 -12 -17 -3 -33 9 -17 7 -24 -15 -41 -27 -23 -41
-70 -38 -128 2 -35 -1 -39 -46 -62 -47 -23 -93 -82 -93 -119 0 -9 -20 -37 -45
-63 -51 -52 -49 -47 -34 -89 11 -28 9 -33 -20 -62 -17 -17 -31 -36 -31 -41 0
-20 43 -62 64 -62 12 0 32 -7 44 -16 22 -15 22 -16 5 -47 -10 -18 -23 -39 -30
-47 -6 -8 -26 -43 -43 -77 -37 -73 -49 -84 -115 -108 -54 -19 -85 -41 -85 -60
0 -7 -13 -28 -29 -48 -78 -99 -83 -416 -7 -535 l26 -41 -29 -85 c-15 -48 -36
-95 -46 -106 -10 -11 -19 -37 -20 -57 -2 -21 -17 -78 -34 -126 -30 -86 -30
-88 -14 -130 9 -23 25 -52 36 -64 16 -18 18 -30 13 -64 -4 -22 -13 -54 -22
-70 -11 -22 -13 -45 -8 -87 5 -46 3 -60 -10 -71 -20 -17 -20 -35 -1 -51 25
-20 19 -83 -10 -110 -13 -12 -29 -39 -36 -59 -12 -41 -26 -74 -76 -181 -19
-41 -41 -91 -50 -110 -52 -121 -72 -146 -124 -160 -42 -12 -49 -23 -23 -38 25
-14 12 -49 -40 -110 -28 -32 -52 -73 -61 -104 -8 -28 -24 -60 -35 -70 -19 -18
-25 -36 -21 -66 1 -6 -2 -20 -8 -29 -7 -13 -3 -24 15 -46 13 -15 29 -47 36
-70 6 -23 24 -58 39 -77 23 -30 40 -39 120 -62 52 -15 105 -29 119 -32 14 -2
86 -18 160 -36 74 -17 169 -35 210 -40 94 -11 134 5 203 79 27 29 60 56 73 61
25 10 31 24 14 35 -17 10 -11 92 10 147 11 29 20 69 20 89 0 61 11 98 31 104
24 8 24 20 -2 43 -17 16 -19 27 -13 58 3 22 10 44 15 50 5 5 15 39 23 74 9 39
26 77 45 101 17 21 31 42 31 47 0 5 7 15 15 22 11 9 12 17 5 30 -6 10 -10 54
-10 98 0 79 0 80 34 105 68 52 96 87 96 120 0 24 11 41 49 77 42 40 58 66 107
181 61 144 74 167 74 129 0 -38 16 -13 49 77 16 45 44 109 61 142 17 34 34 78
38 99 7 32 12 37 38 37 16 1 43 7 59 14 17 7 44 15 60 18 50 8 85 25 85 40 0
8 20 23 45 34 25 11 55 34 68 50 12 17 41 42 65 56 73 43 149 183 123 225 -14
23 -14 28 2 28 33 1 39 16 21 60 -16 39 -16 46 -2 89 15 45 31 118 43 193 6
41 27 58 72 58 67 0 128 74 104 126 -6 14 -11 32 -11 40 0 16 3 17 68 34 52
13 132 82 132 114 0 52 11 65 71 87 86 31 104 58 112 159 6 71 4 86 -12 109
-47 67 -48 63 30 153 40 46 79 83 87 83 11 0 33 -41 69 -129 28 -70 58 -136
66 -145 8 -9 18 -27 22 -41 4 -13 20 -45 36 -69 20 -33 25 -49 18 -58 -11 -13
-4 -33 11 -33 7 0 78 -44 138 -85 12 -9 22 -25 22 -36 0 -14 12 -25 38 -36 20
-8 49 -24 64 -34 14 -11 33 -19 41 -19 8 0 27 -17 43 -37 19 -25 23 -35 11
-30 -24 9 -33 -14 -12 -29 16 -12 44 -73 45 -96 0 -5 -17 -16 -37 -25 -34 -16
-38 -22 -41 -60 -2 -27 4 -55 17 -82 21 -40 21 -40 2 -51 -11 -5 -27 -10 -36
-10 -8 0 -20 -12 -25 -26 -6 -15 -30 -49 -54 -76 -25 -26 -54 -70 -66 -96 -34
-74 -36 -77 -59 -80 -25 -4 -25 -1 -5 -47 19 -45 12 -100 -14 -108 -9 -3 -66
-26 -127 -52 -60 -26 -130 -53 -154 -59 -39 -11 -46 -18 -67 -67 -13 -30 -23
-70 -24 -91 l0 -36 -98 5 c-118 7 -182 -6 -254 -48 -29 -18 -66 -35 -83 -38
-19 -4 -31 -14 -34 -26 -2 -11 -32 -50 -67 -88 -35 -37 -77 -93 -93 -125 -16
-31 -41 -68 -55 -81 -14 -14 -26 -32 -26 -41 0 -32 51 -175 70 -195 9 -11 25
-34 33 -51 17 -33 104 -134 116 -134 5 0 29 16 54 35 50 38 77 44 97 20 11
-13 10 -18 -6 -30 -15 -11 -17 -16 -7 -26 7 -7 13 -23 13 -36 0 -12 6 -40 14
-60 53 -147 56 -187 14 -181 -18 2 -23 -2 -23 -21 0 -20 8 -27 41 -38 25 -8
45 -23 52 -38 14 -31 99 -86 248 -163 151 -77 336 -162 355 -162 8 0 25 -7 37
-16 31 -21 177 -74 205 -74 14 0 32 12 46 31 l23 31 -32 33 c-32 33 -33 35
-16 60 9 14 21 25 26 25 10 0 40 52 40 69 0 16 -78 91 -95 91 -9 0 -14 4 -10
9 3 5 1 12 -5 16 -5 3 -10 17 -10 31 0 29 -27 71 -88 135 -38 40 -42 50 -33
67 13 24 -9 164 -41 256 l-21 60 24 19 c14 11 25 15 27 8 7 -21 38 -10 117 42
44 29 124 77 179 107 94 50 101 52 142 43 49 -11 73 -3 49 17 -26 22 -17 38
38 64 28 14 66 34 82 46 17 11 38 20 47 20 20 0 71 21 141 57 52 27 77 27 192
3 80 -16 174 -6 235 26 26 14 78 31 116 37 54 10 71 18 80 35 12 24 111 88
153 99 14 3 92 51 174 106 127 86 153 100 190 101 38 1 42 3 42 27 1 37 34 86
46 68 6 -11 13 -11 27 -3 10 6 36 15 58 18 62 11 69 19 67 75 -2 39 2 53 15
60 14 8 14 11 2 11 -8 0 -28 21 -43 46 -31 52 -27 67 30 91 29 12 32 16 27 46
-3 17 -17 61 -31 97 -14 36 -32 98 -39 139 -22 123 -49 184 -104 230 -27 23
-57 41 -67 41 -34 1 -66 27 -79 66 -8 21 -23 73 -35 114 -11 41 -25 79 -30 85
-5 5 -9 25 -9 45 0 19 -6 45 -13 57 -6 12 -29 51 -49 86 -21 36 -38 76 -38 89
0 12 -11 45 -25 72 -14 27 -25 66 -25 85 -1 20 -7 54 -15 76 -8 22 -15 50 -15
63 0 33 -17 63 -55 97 -29 26 -87 129 -182 320 -72 145 -123 237 -149 268 -13
16 -24 34 -24 42 0 7 -6 18 -14 24 -8 7 -17 24 -21 39 -3 15 -23 44 -42 64
-35 35 -36 38 -20 56 24 27 21 58 -11 105 -82 121 -93 140 -89 151 3 6 40 26
83 45 44 19 100 50 127 69 28 20 72 40 110 48 35 8 101 37 152 66 50 28 124
69 165 91 150 81 360 240 360 272 0 11 11 15 38 15 54 0 84 -20 102 -65 8 -22
36 -61 63 -88 l47 -47 0 -90 c0 -89 0 -90 36 -130 29 -32 43 -40 71 -40 25 0
45 -9 70 -30 18 -16 40 -30 47 -30 8 0 52 -22 99 -50 93 -55 129 -61 163 -29
22 21 25 21 48 5 14 -9 23 -22 20 -30 -5 -13 59 -46 91 -46 28 0 125 -42 125
-54 0 -7 -14 -25 -31 -42 -39 -37 -62 -80 -54 -104 6 -19 71 -54 121 -66 16
-3 53 -15 82 -25 29 -10 62 -19 74 -19 24 0 127 -31 200 -61 26 -10 56 -19 68
-19 11 0 35 -15 53 -34 18 -19 46 -41 63 -50 18 -8 48 -38 68 -66 20 -27 42
-50 50 -50 27 0 292 -140 325 -172 32 -31 33 -35 28 -87 -5 -46 -1 -67 34
-155 50 -126 50 -126 81 -149 22 -16 30 -17 68 -7 49 13 90 53 125 124 20 41
25 65 25 130 0 45 4 88 9 96 7 10 1 22 -24 45 -33 29 -61 92 -37 84 33 -11
262 -192 262 -207 0 -19 53 -78 105 -118 31 -23 38 -25 69 -14 31 10 39 8 84
-20 27 -16 52 -30 55 -30 14 0 37 34 37 56 0 15 6 24 15 24 8 0 15 -4 15 -10
0 -20 58 -40 84 -30 30 11 33 32 11 83 -16 38 -20 103 -7 110 4 3 33 0 65 -6
50 -9 60 -8 74 6 16 15 14 24 -17 119 -50 153 -73 194 -175 308 -22 25 -58 71
-80 102 l-40 56 -125 41 c-69 23 -165 48 -215 56 -49 9 -103 19 -120 24 -16 5
-56 12 -87 16 -48 5 -63 12 -90 40 -17 19 -45 37 -61 41 -17 3 -49 24 -73 46
-35 32 -48 54 -67 117 -14 42 -39 107 -56 143 -32 69 -62 198 -65 279 -2 72
-13 79 -121 79 -101 0 -104 2 -105 71 0 32 -56 136 -80 149 -10 6 -31 10 -47
10 -15 0 -38 3 -51 6 -19 6 -22 11 -16 40 8 43 -12 75 -60 98 -34 16 -41 27
-36 51 1 5 -4 27 -11 47 -10 33 -19 40 -66 58 -30 11 -57 20 -62 20 -20 0 -39
40 -46 95 -9 74 -31 132 -56 146 -16 8 -17 13 -7 28 13 22 -3 51 -28 51 -20 0
-17 20 4 26 35 11 47 22 54 50 4 16 18 70 31 119 14 50 28 102 31 117 6 28 33
41 115 52 24 4 53 13 64 21 12 8 34 15 50 15 15 0 63 13 105 29 42 16 84 32
92 35 8 3 58 29 110 57 162 87 306 202 373 299 17 25 47 65 68 90 39 48 109
175 109 199 0 8 11 29 25 47 16 21 21 35 14 39 -6 4 -7 14 -4 24 14 33 38 239
39 326 1 70 -4 104 -22 155 -13 36 -28 88 -33 115 -14 72 -95 229 -157 307
-86 107 -291 297 -334 308 -20 6 -40 15 -43 20 -3 6 -13 10 -22 10 -8 0 -34
16 -56 36 -23 19 -54 38 -68 41 -25 5 -46 32 -59 77 -4 13 -22 23 -55 32 -74
19 -82 18 -57 -9 39 -42 24 -59 -34 -37 -43 17 -204 48 -276 54 -99 8 -143 37
-78 51 36 8 99 0 224 -26 103 -22 106 -22 106 -10 0 4 -21 14 -47 21 -27 7
-61 16 -78 21 -16 4 -57 13 -90 20 -76 16 -87 25 -36 33 43 7 198 -25 235 -49
36 -22 111 -28 130 -10 20 20 20 24 1 68 -13 31 -23 38 -70 53 l-56 18 -83
-28 c-66 -22 -88 -25 -104 -17 -12 6 -41 11 -66 11 -37 0 -48 -4 -61 -24 -9
-14 -30 -29 -47 -35 -16 -6 -45 -24 -64 -41 -33 -29 -39 -30 -124 -30 -83 0
-252 -25 -345 -51 -217 -62 -477 -197 -631 -328 -43 -37 -67 -51 -90 -51 -17
0 -57 -14 -89 -31 -31 -17 -59 -29 -61 -27 -2 3 38 41 89 86 276 246 318 282
325 282 4 0 50 39 102 85 52 47 143 128 203 181 59 53 107 100 107 105 0 15
-30 9 -106 -20z"/>
<path d="M3235 10034 c-65 -9 -74 -15 -99 -60 -20 -35 -26 -61 -26 -104 0 -73
25 -107 107 -146 49 -23 66 -26 131 -22 72 3 76 5 107 41 38 44 67 126 59 166
-8 36 -52 83 -102 107 -37 18 -119 26 -177 18z"/>
<path d="M1989 9801 c-55 -18 -78 -41 -85 -87 -8 -57 19 -112 67 -136 69 -35
222 -9 262 44 l19 26 -28 52 c-37 68 -88 102 -157 106 -29 2 -64 0 -78 -5z"/>
<path d="M3842 9029 c2 -7 10 -15 17 -17 8 -3 12 1 9 9 -2 7 -10 15 -17 17 -8
3 -12 -1 -9 -9z"/>
<path d="M9118 8140 c-39 -21 -104 -109 -125 -170 -16 -45 -17 -197 -1 -241 6
-18 24 -43 38 -56 42 -35 44 -71 8 -138 -29 -54 -30 -62 -25 -134 4 -42 1
-103 -5 -136 -5 -33 -14 -83 -20 -111 -6 -33 -18 -60 -33 -74 -14 -13 -25 -29
-25 -36 0 -32 -76 -169 -121 -218 -67 -73 -89 -81 -173 -62 -37 9 -84 16 -104
16 -34 0 -39 -4 -64 -50 l-28 -49 22 -16 c13 -8 28 -15 34 -15 6 0 19 -9 28
-19 15 -16 15 -22 4 -40 -17 -27 0 -43 67 -65 107 -34 135 -33 217 12 40 22
90 45 111 52 27 8 49 27 76 63 21 29 53 66 71 82 28 27 48 53 137 184 13 19
28 51 33 71 6 21 19 49 29 62 l19 23 65 -63 c36 -34 70 -62 76 -62 6 0 11 -11
11 -25 0 -13 10 -45 22 -69 21 -43 21 -50 10 -183 -6 -76 -16 -183 -21 -238
-8 -79 -7 -118 4 -185 8 -47 15 -136 15 -199 0 -103 2 -118 25 -156 13 -24 31
-45 40 -49 24 -9 19 -44 -7 -48 -32 -4 -35 -41 -6 -80 30 -42 48 -77 48 -92 0
-7 11 -40 25 -74 14 -34 25 -75 25 -92 0 -16 9 -47 20 -67 11 -21 20 -47 20
-58 0 -11 6 -55 12 -99 l13 -79 77 -36 c101 -47 111 -65 67 -123 -19 -23 -68
-79 -110 -123 -89 -94 -102 -120 -69 -147 36 -29 200 -19 200 12 0 5 16 14 35
20 19 6 35 15 35 20 0 5 17 19 38 31 20 12 62 44 92 70 30 25 64 48 75 50 45
9 21 115 -43 191 -11 13 -13 32 -8 78 4 38 3 67 -4 81 -10 17 -8 25 8 42 10
12 22 28 26 34 9 16 -11 53 -29 53 -13 0 -46 87 -51 137 -2 12 -14 39 -28 60
-14 21 -26 46 -26 55 0 10 -9 41 -20 70 -11 29 -23 76 -26 105 -6 44 -3 60 20
102 28 55 34 114 14 167 -14 39 3 116 17 79 4 -11 16 -29 25 -40 9 -11 40 -59
69 -106 29 -48 63 -97 77 -110 19 -18 21 -25 12 -37 -10 -12 -4 -21 32 -54 33
-28 39 -37 23 -33 -28 8 -30 -10 -6 -38 10 -10 25 -42 34 -71 16 -49 18 -51
52 -51 47 0 80 -30 73 -67 -5 -23 -1 -30 24 -43 17 -9 36 -31 45 -52 18 -42
170 -193 227 -225 23 -13 44 -37 57 -62 26 -54 45 -147 38 -184 -13 -65 57
-121 171 -137 65 -9 68 -27 8 -53 -59 -26 -63 -38 -22 -57 51 -24 57 -36 60
-112 3 -71 38 -173 60 -173 6 0 59 16 119 36 103 34 108 38 128 77 15 29 22
66 26 136 6 111 -10 161 -71 228 -44 49 -76 130 -76 191 0 57 -22 131 -52 181
-42 67 -152 208 -250 320 -47 53 -59 81 -37 81 6 0 9 10 7 22 -2 17 -14 27
-42 36 -46 15 -58 29 -75 88 -8 28 -25 52 -46 68 -25 19 -39 45 -65 118 -19
51 -46 118 -62 149 -15 31 -28 68 -28 83 0 15 -9 55 -21 89 -11 34 -32 104
-45 156 -26 103 -13 85 -182 253 -56 56 -56 57 -38 77 10 11 26 23 35 26 9 3
26 21 38 40 13 20 35 37 50 41 63 16 96 62 74 103 -8 13 -2 38 20 97 40 102
48 146 48 272 1 142 -9 164 -96 204 -37 16 -73 35 -80 40 -7 5 -61 12 -120 15
-60 3 -133 13 -164 23 -36 11 -75 16 -106 13 -53 -6 -57 -2 -116 82 -27 39
-63 58 -124 66 -30 4 -60 13 -68 19 -8 7 -30 45 -50 85 -45 94 -86 129 -176
150 -97 22 -224 19 -271 -5z m1056 -769 l28 -11 -4 -90 -4 -89 -48 -47 c-63
-63 -70 -54 -90 106 -14 116 -14 126 2 138 18 15 68 11 116 -7z"/>
<path d="M1950 7300 c0 -5 5 -10 11 -10 5 0 7 5 4 10 -3 6 -8 10 -11 10 -2 0
-4 -4 -4 -10z"/>
<path d="M7935 4870 c-3 -5 3 -10 14 -10 12 0 21 5 21 10 0 6 -6 10 -14 10 -8
0 -18 -4 -21 -10z"/>
<path d="M6180 3774 c0 -16 11 -35 28 -50 15 -13 65 -56 112 -97 90 -77 198
-163 240 -189 14 -8 39 -29 55 -46 36 -36 110 -92 181 -138 29 -19 64 -44 78
-56 14 -13 41 -34 61 -48 20 -14 46 -33 58 -44 12 -10 54 -39 92 -64 39 -24
72 -49 73 -53 2 -5 27 -20 57 -33 29 -14 55 -32 58 -40 4 -9 19 -21 34 -28 30
-13 55 -33 112 -91 26 -26 42 -36 54 -31 10 4 25 0 35 -8 9 -8 43 -25 74 -39
32 -13 60 -32 63 -41 8 -22 151 -118 176 -118 11 0 22 -7 25 -15 11 -27 97
-89 133 -94 22 -4 36 -12 36 -21 0 -8 7 -15 15 -15 8 0 18 -4 22 -10 4 -5 15
-10 25 -10 10 0 18 -6 18 -13 0 -19 104 -82 135 -82 29 0 73 -27 65 -40 -3 -4
10 -17 29 -28 25 -15 37 -17 45 -9 9 9 13 6 17 -11 4 -12 12 -22 19 -22 7 0
18 -7 25 -15 15 -18 110 -65 130 -65 7 0 22 -9 34 -21 37 -36 148 -101 184
-106 23 -4 36 -13 40 -25 2 -11 12 -18 21 -16 28 5 101 -33 101 -52 0 -19 19
-30 49 -30 10 0 26 -9 36 -20 10 -11 28 -20 40 -20 13 0 25 -6 28 -14 7 -17
171 -106 196 -106 10 0 21 -6 24 -13 3 -7 36 -26 73 -42 38 -16 81 -39 96 -51
15 -12 41 -25 57 -29 16 -3 35 -13 42 -21 6 -8 20 -14 31 -14 25 0 58 -18 58
-31 0 -6 13 -29 28 -52 31 -46 47 -84 58 -137 4 -19 20 -48 36 -65 16 -16 37
-43 45 -60 9 -16 31 -48 49 -69 19 -22 34 -45 34 -51 0 -24 49 -56 175 -115
167 -79 370 -177 415 -202 19 -10 51 -26 70 -34 19 -8 51 -23 70 -33 19 -11
78 -40 130 -65 52 -26 115 -58 140 -72 25 -14 128 -66 230 -115 102 -50 210
-106 240 -124 30 -18 93 -50 140 -71 47 -21 114 -55 150 -75 88 -48 119 -65
155 -83 17 -8 57 -28 89 -45 117 -62 186 -25 117 63 -16 20 -32 53 -36 73 -4
21 -16 51 -28 67 -47 65 -76 135 -70 169 3 19 -2 49 -11 71 -9 21 -16 45 -16
52 0 32 61 11 199 -66 47 -26 103 -54 125 -61 21 -8 41 -21 44 -29 8 -21 23
-30 53 -30 15 0 47 -11 70 -25 81 -46 105 -27 66 52 -18 34 -36 53 -61 66 -20
9 -36 21 -36 25 0 5 -32 42 -70 82 -39 40 -68 76 -65 79 3 3 -9 12 -27 21 -31
14 -51 50 -28 50 6 0 22 12 35 28 23 26 24 27 52 10 15 -9 53 -23 83 -31 30
-8 62 -18 71 -21 18 -8 49 17 49 39 0 7 -26 30 -57 50 -115 75 -135 89 -159
118 -30 35 -30 42 -1 71 21 21 36 24 172 32 83 5 203 9 267 9 70 0 122 5 128
11 19 19 -1 43 -67 80 -35 19 -105 65 -155 100 -50 35 -95 64 -101 64 -5 0
-24 10 -41 23 -42 31 -262 164 -339 205 -34 18 -93 52 -132 74 -38 22 -110 64
-160 93 -49 29 -102 59 -116 66 -15 8 -67 38 -115 68 -104 63 -106 64 -334
191 -96 54 -231 126 -300 161 l-125 63 -185 4 c-102 2 -248 -1 -325 -6 l-140
-9 -115 65 c-286 160 -821 435 -1101 565 -218 101 -511 234 -544 247 -11 4
-45 19 -75 33 -168 76 -559 247 -564 247 -17 0 -345 135 -369 152 -19 14 -47
22 -81 23 -54 2 -216 48 -252 71 -11 8 -23 12 -26 9 -3 -3 -41 4 -84 15 -79
22 -188 51 -359 95 -49 13 -151 40 -225 59 -166 44 -180 45 -180 10z"/>
<path d="M1510 2451 c-9 -19 -8 -21 15 -21 28 0 32 12 11 29 -12 10 -17 8 -26
-8z"/>
<path d="M1472 2363 c-5 -16 -13 -37 -18 -47 -5 -14 -4 -17 4 -12 7 4 19 23
27 43 18 42 18 43 6 43 -5 0 -14 -12 -19 -27z"/>
<path d="M976 681 c-3 -5 1 -12 10 -15 20 -8 29 -1 19 13 -8 13 -22 14 -29 2z"/>
</g>
</svg>
